<?xml version="1.0" encoding="UTF-8"?>
<svg width="87px" height="96px" viewBox="0 0 87 96" version="1.1" xmlns="http://www.w3.org/2000/svg" xmlns:xlink="http://www.w3.org/1999/xlink">
    <title>binstackr-logo</title>
    <g id="binstackr-logo" stroke="none" fill="none">
        <path d="M15.22,93.7 C11.77,93.58 8.67,92.87 5.91,91.07 C2.87,89.1 0.77,86.02 0.44,82.4 C0.33,81.23 0.35,80.02 0.45,78.89 L1.19,70.41 C1.62,65.48 5.5,61.66 10.04,59.92 C12.54,58.91 15.08,58.89 17.76,59.01 L23.85,59.28 C20.01,54.74 21.03,50.89 21.48,45.49 C21.63,43.73 21.83,42.09 22.1,40.32 C20.76,40.46 19.33,40.71 17.97,40.73 L15.75,40.77 C9.85,40.89 4.6,36.58 3.68,30.43 L2.38,21.73 C1.31,14.57 5.92,8.02 12.96,6.32 C15.75,5.65 18.5,5.41 21.37,5 L32.28,3.44 L47.1,1.51 C49.22,1.23 51.29,0.87 53.34,0.4 C55.16,-0.01 56.75,0.2 58.51,0.61 C60.27,1.02 61.83,1.44 63.35,2.45 C66.74,4.7 69.13,8.06 69.63,12.17 L70.42,18.74 C71.12,24.56 69.97,28.31 65.18,31.99 C69.1,32.64 72.11,32.4 76.04,33.04 C82.68,34.13 87.22,39.98 86.8,46.66 C86.59,50.03 85.95,54.5 85.18,57.82 C82.57,65.74 75.17,68.1 67.21,66.89 C70.57,72.21 69.04,78.48 68.36,84.32 C66.86,90.7 61.48,94.19 55.16,94.87 C53.44,95.06 51.65,94.98 49.9,94.9 L47.64,94.79 L15.21,93.67 L15.22,93.7 Z" id="-path" fill="#000000" fill-rule="nonzero"></path>
        <path d="M16.68,30.34 L45.08,26.36 L56.88,24.8 C61.88,24.14 65.98,20.67 66.61,15.56 C67.04,12.12 65.9,8.82 63.48,6.44 C61.23,4.23 57.89,2.72 54.42,3.2 L24.54,7.32 C20.84,7.83 17.37,8.25 13.79,8.99 C8.55,10.07 5.08,14.67 5.14,19.93 C5.17,22.68 5.91,25.13 7.76,27.2 C9.94,29.64 13.18,30.82 16.68,30.33 L16.68,30.34 Z" id="-path" fill="#000000" fill-rule="nonzero"></path>
        <path d="M43.42,30.52 L59.48,31.6 C64.67,29.86 68.18,26.11 67.8,20.31 C65.94,24.61 61.77,27.13 57.18,27.68 L37.85,30.22 L43.42,30.54 L43.42,30.52 Z" id="-path" fill="#000000" fill-rule="nonzero"></path>
        <path d="M29.69,31.31 L19.38,32.79 C14.45,33.51 10.73,33.46 6.65,29.89 C7.21,34.4 11.04,37.71 15.63,37.82 C18.19,37.88 20.69,37.45 23.23,37.1 C24.74,34.42 27.01,32.19 29.69,31.31 L29.69,31.31 Z" id="-path" fill="#000000" fill-rule="nonzero"></path>
        <path d="M78.67,55.61 C83.13,53.53 84.55,48.5 83.86,44.06 C83.26,40.18 80.6,37.19 76.87,36.07 C75.06,35.53 73.36,35.37 71.43,35.24 L35.96,32.7 C33.36,32.51 31.04,33.31 29.04,34.86 C25.7,37.44 24.14,41.67 24.82,45.87 C25.63,50.85 29.88,54.11 34.78,54.42 L53.4,55.6 L72.82,56.85 C74.85,56.98 76.79,56.49 78.67,55.61 Z" id="-path" fill="#000000" fill-rule="nonzero"></path>
        <path d="M71.15,64.3 C76.34,64.42 81.81,61.41 82.58,56.08 C79.72,58.59 76.22,59.73 72.42,59.51 L57.85,58.66 L33.03,56.96 C29.21,56.7 26.02,54.41 23.88,51.39 C23.95,53.91 25.06,56.44 26.97,58.24 C27.96,59.17 29.1,59.51 30.47,59.58 L56.57,60.94 C61.13,61.18 63.81,63.52 64.92,63.75 C66.96,64.17 68.94,64.26 71.15,64.31 L71.15,64.3 Z" id="-path" fill="#000000" fill-rule="nonzero"></path>
        <path d="M62.59,82.32 C65.25,80.2 66.36,77.32 66.28,73.99 C66.16,68.94 62.28,64.13 56.94,63.83 L21.78,61.86 C19.08,61.71 16.61,61.56 14,61.75 C10.57,62 7.53,63.99 5.81,66.49 C3.69,69.57 3.17,73.26 4.42,76.6 C5.88,80.53 9.51,83.08 13.72,83.29 L31.74,84.2 L54.47,85.11 C57.41,85.23 60.33,84.12 62.6,82.31 L62.59,82.32 Z" id="-path" fill="#000000" fill-rule="nonzero"></path>
        <path d="M65.48,83.2 C62.68,86.49 58.79,88.05 54.46,87.87 L32.35,86.94 L14.96,86.11 C10.23,86.06 5.58,84.12 3.21,80.02 C2.79,86.39 8.51,90.49 14.23,90.73 L35.51,91.6 L52.87,92.17 C58.53,92.36 64.39,89.29 65.47,83.2 L65.48,83.2 Z" id="-path" fill="#000000" fill-rule="nonzero"></path>
        <path d="M62.59,82.32 C60.32,84.13 57.4,85.23 54.46,85.12 L31.73,84.21 L13.71,83.3 C9.5,83.09 5.88,80.54 4.41,76.61 C3.16,73.27 3.68,69.57 5.8,66.5 C7.52,64 10.56,62.01 13.99,61.76 C16.61,61.57 19.07,61.72 21.77,61.87 L56.93,63.84 C62.27,64.14 66.15,68.95 66.27,74 C66.35,77.34 65.24,80.21 62.58,82.33 L62.59,82.32 Z M36.62,68.6 C35.38,66.46 33.1,64.71 30.66,64.59 L15.59,63.81 C12.07,63.63 8.88,66.01 7.63,68.87 C6.17,72.22 6.87,75.97 9.33,78.44 C11.2,80.32 13.58,80.91 16.16,81 L28.52,81.45 C31.7,81.57 34.64,80.01 36.26,77.56 C38.02,74.9 38.3,71.47 36.63,68.6 L36.62,68.6 Z" id="Shape" fill="#FFFFFF" fill-rule="nonzero"></path>
        <path d="M16.68,30.34 C13.18,30.83 9.94,29.65 7.76,27.21 C5.91,25.14 5.17,22.69 5.13946519,19.94 C5.09,14.68 8.55,10.08 13.79,9 C17.37,8.26 20.84,7.84 24.54,7.33 L54.42,3.21 C57.89,2.73 61.23,4.24 63.48,6.45 C65.9,8.83 67.03,12.13 66.61,15.57 C65.98,20.68 61.88,24.15 56.88,24.81 L45.08,26.37 L16.68,30.35 L16.68,30.34 Z M17.59,27.91 L30.44,26.11 C34.87,25.49 38.32,22.61 38.62,18.01 C38.78,15.47 37.81,12.94 36.04,11.3 C34.1,9.51 31.62,8.65 28.94,9.01 L16.17,10.74 C12.75,11.2 9.75,13.35 8.64,16.63 C7.67,19.49 8.19,22.62 10.08,24.88 C11.83,26.98 14.63,28.31 17.6,27.9 L17.59,27.91 Z" id="Shape" fill="#FFFFFF" fill-rule="nonzero"></path>
        <path d="M78.67,55.61 C76.79,56.49 74.85,56.98 72.82,56.85 L53.4,55.6 L34.78,54.42 C29.87,54.11 25.63,50.85 24.82,45.87 C24.13,41.67 25.69,37.44 29.04,34.86 C31.04,33.32 33.36,32.52 35.96,32.7 L71.43,35.24 C73.37,35.38 75.07,35.53 76.87,36.07 C80.61,37.19 83.26,40.18 83.86,44.06 C84.55,48.5 83.13,53.53 78.67,55.61 Z M79.41,50.59 C81.16,48.07 81.36,44.88 80.16,42.19 C78.9,39.36 76.15,37.63 73.08,37.44 L59.71,36.63 C55.53,36.38 51.79,39.18 50.77,43.17 C50.1,45.78 50.65,48.4 52.31,50.49 C53.75,52.3 56.03,53.48 58.56,53.61 L71.64,54.28 C74.69,54.44 77.64,53.14 79.42,50.58 L79.41,50.59 Z" id="Shape" fill="#FFFFFF" fill-rule="nonzero"></path>
        <path d="M65.48,83.2 C64.39,89.29 58.54,92.36 52.88,92.17 L35.52,91.6 L14.24,90.73 C8.52,90.5 2.8,86.39 3.22,80.02 C5.59,84.12 10.24,86.07 14.97,86.11 L32.36,86.94 L54.47,87.87 C58.8,88.05 62.69,86.49 65.49,83.2 L65.48,83.2 Z" id="Path" fill="#FFFFFF" fill-rule="evenodd"></path>
        <path d="M71.15,64.3 C68.94,64.25 66.96,64.17 64.92,63.74 C63.81,63.51 61.13,61.17 56.57,60.93 L30.47,59.57 C29.1,59.5 27.96,59.16 26.97,58.23 C25.06,56.43 23.95,53.9 23.88,51.38 C26.02,54.4 29.21,56.69 33.03,56.95 L57.85,58.65 L72.42,59.5 C76.22,59.72 79.72,58.58 82.58,56.07 C81.8,61.4 76.34,64.41 71.15,64.29 L71.15,64.3 Z" id="Path" fill="#FFFFFF" fill-rule="evenodd"></path>
        <path d="M29.69,31.31 C27.01,32.19 24.75,34.42 23.23,37.1 C20.69,37.45 18.19,37.88 15.63,37.82 C11.04,37.71 7.21,34.4 6.65,29.89 C10.73,33.46 14.45,33.51 19.38,32.79 L29.69,31.31 L29.69,31.31 Z" id="Path" fill="#FFFFFF" fill-rule="evenodd"></path>
        <path d="M43.42,30.52 L37.85,30.2 L57.18,27.66 C61.77,27.11 65.94,24.59 67.8,20.29 C68.19,26.09 64.68,29.84 59.48,31.58 L43.42,30.5 L43.42,30.52 Z" id="Path" fill="#FFFFFF" fill-rule="evenodd"></path>
        <path d="M36.62,68.6 C38.29,71.48 38.01,74.9 36.25,77.56 C34.63,80.01 31.69,81.56 28.51,81.45 L16.15,81 C13.57,80.91 11.19,80.32 9.32,78.44 C6.86,75.97 6.16,72.22 7.62,68.87 C8.87,66.01 12.06,63.63 15.58,63.81 L30.65,64.59 C33.09,64.72 35.37,66.46 36.61,68.6 L36.62,68.6 Z M21.37,74.39 C22.06,72.55 21.82,70.66 20.8,69.02 C18.83,65.84 13.97,65.57 11.38,68.15 C10.09,69.44 9.31,71.28 9.63,73.24 C10.07,75.93 12.4,77.95 14.9,78.21 C17.7,78.49 20.35,77.09 21.37,74.39 Z" id="Shape" fill="#000000" fill-rule="nonzero"></path>
        <path d="M17.59,27.91 C14.63,28.32 11.83,26.99 10.07,24.89 C8.18,22.62 7.66,19.49 8.63,16.64 C9.74,13.36 12.74,11.22 16.16,10.75 L28.93,9.02 C31.6,8.66 34.09,9.52 36.03,11.31 C37.8,12.95 38.77,15.48 38.61,18.02 C38.31,22.61 34.87,25.5 30.43,26.12 L17.58,27.92 L17.59,27.91 Z M17.07,25.24 C19.39,25.17 21.29,24.02 22.23,22.24 C23.25,20.32 23.14,18.13 21.98,16.31 C20.71,14.32 18.51,13.38 16.18,13.6 C12.83,13.91 10.45,16.83 10.94,20.16 C11.39,23.22 13.85,25.33 17.07,25.23 L17.07,25.24 Z" id="Shape" fill="#000000" fill-rule="nonzero"></path>
        <path d="M79.41,50.59 C77.63,53.15 74.68,54.44 71.63,54.29 L58.55,53.62 C56.02,53.49 53.74,52.31 52.3,50.5 C50.63,48.4 50.09,45.78 50.76,43.18 C51.78,39.19 55.52,36.39 59.7,36.64 L73.07,37.45 C76.14,37.64 78.89,39.36 80.15,42.2 C81.41,45.04 81.15,48.08 79.4,50.6 L79.41,50.59 Z M77.21,42.62 C75.35,39.95 71.82,39.18 69.13,40.82 C66.87,42.2 65.85,44.82 66.53,47.28 C67.21,49.74 69.4,51.39 72.02,51.5 C74.27,51.6 76.37,50.53 77.39,48.73 C78.48,46.8 78.56,44.54 77.21,42.62 Z" id="Shape" fill="#000000" fill-rule="nonzero"></path>
        <path d="M21.37,74.39 C20.35,77.1 17.7,78.5 14.9,78.21 C12.4,77.96 10.07,75.94 9.63,73.24 C9.31,71.27 10.09,69.44 11.38,68.15 C13.97,65.56 18.83,65.83 20.8,69.02 C21.82,70.66 22.07,72.55 21.37,74.39 L21.37,74.39 Z" id="Path" fill="#FFFFFF" fill-rule="evenodd"></path>
        <path d="M17.07,25.24 C13.85,25.33 11.39,23.22 10.94,20.17 C10.45,16.84 12.82,13.92 16.18,13.61 C18.51,13.39 20.71,14.33 21.98,16.32 C23.14,18.14 23.25,20.32 22.23,22.25 C21.29,24.02 19.39,25.18 17.07,25.25 L17.07,25.24 Z" id="Path" fill="#FFFFFF" fill-rule="evenodd"></path>
        <path d="M77.21,42.62 C78.55,44.54 78.48,46.8 77.39,48.73 C76.37,50.53 74.27,51.6 72.02,51.5 C69.39,51.39 67.19,49.69 66.53,47.28 C65.87,44.87 66.87,42.2 69.13,40.82 C71.82,39.18 75.35,39.95 77.21,42.62 Z" id="Path" fill="#FFFFFF" fill-rule="evenodd"></path>
    </g>
</svg>