<?xml version="1.0" encoding="UTF-8"?>
<svg width="2077px" height="688px" viewBox="0 0 2077 688" version="1.1" xmlns="http://www.w3.org/2000/svg" xmlns:xlink="http://www.w3.org/1999/xlink">
    <title>Signature</title>
    <g id="Signature" stroke="none" fill="none" fill-rule="evenodd">
        <path d="M815.511178,0.834129235 C822.866588,0.834129235 830.057384,3.01160471 836.177167,7.09208539 L836.209813,7.11385289 C842.307653,11.1797029 847.061836,16.9636176 849.870344,23.733187 L851.551488,27.7853797 C853.285687,31.9654564 855.822523,35.7650189 859.018488,38.9691256 L859.249875,39.2011026 C859.32138,39.2727897 859.391123,39.3462134 859.45904,39.4213081 C861.761486,41.967064 861.564244,45.8973079 859.018488,48.1997534 C855.991435,50.9374961 854.519813,54.9986486 855.090343,59.040032 L856.508866,69.0882144 C856.5321,69.2527973 856.54376,69.4188074 856.54376,69.5850223 C856.54376,71.5478754 854.952554,73.1390823 852.9897,73.1390823 L840.725445,73.1390823 C836.959592,73.1390823 833.205793,73.5645274 829.535461,74.4073241 L817.004205,77.284802 C815.426486,77.6470842 813.867291,78.085772 812.332131,78.5993152 L805.783649,80.7899189 C801.626907,82.1804358 797.671053,84.1114953 794.017806,86.5334422 L776.579815,98.0940866 C771.454641,101.491859 765.441816,103.303957 759.292648,103.303957 L756.149046,103.303957 C752.09836,103.303957 748.186435,104.779785 745.145137,107.455334 C742.019527,110.205056 738.472413,112.434716 734.639413,114.059067 L729.210268,116.359833 C722.480849,119.21163 716.98366,124.361757 713.699674,130.891172 C710.40739,137.437086 704.97932,142.663107 698.313285,145.704833 L689.820872,149.579941 C687.366296,150.699969 685.006403,152.016836 682.764308,153.517643 L664.32798,165.858492 C663.139368,166.654122 661.985443,167.500387 660.869391,168.394955 L606.419812,212.038778 C604.292526,213.743895 603.693155,216.72848 604.997206,219.122685 L605.932023,220.838986 C606.81047,222.451793 607.777109,224.014977 608.827545,225.521431 L611.827183,229.823279 C614.858647,234.170771 617.174998,238.975291 618.688406,244.054666 L621.946167,254.98852 C622.184086,255.787036 622.402008,256.591375 622.599729,257.400782 L627.973411,279.398935 C629.230153,284.543637 631.29627,289.45601 634.094504,293.95237 L638.471442,300.985477 C640.622437,304.441815 642.343264,308.147916 643.595708,312.021473 L650.986033,334.878262 C651.190993,335.51216 651.408601,336.141899 651.638728,336.767101 L660.914493,361.967237 C661.998584,364.912463 662.802968,367.953216 663.316997,371.049242 L665.40219,383.608465 C666.512066,390.293305 669.672992,396.467664 674.447258,401.276542 C674.679631,401.510599 674.924198,401.732226 675.179939,401.940497 C679.193069,405.208721 685.095772,404.604856 688.363997,400.591726 L694.319778,393.278482 C697.091644,389.874842 700.299645,386.851031 703.861053,384.285026 L713.040339,377.671322 C716.852097,374.92494 720.257758,371.655036 723.156841,367.958088 L727.616323,362.271298 C729.877062,359.388374 732.44781,356.762656 735.282263,354.441435 L749.697217,342.636591 C749.808411,342.545531 749.919997,342.454951 750.031972,342.364853 L776.241928,321.275676 C777.726749,320.080953 779.278663,318.9721 780.890071,317.954544 L790.041343,312.175797 C796.280865,308.23573 801.550342,302.937825 805.456781,296.677194 C809.148655,290.760433 815.63004,287.164998 822.604134,287.164998 L828.934666,287.164998 C832.941914,287.164998 836.873897,286.076455 840.310623,284.015642 C843.77709,281.936995 846.79371,279.187238 849.183638,275.927573 L855.432722,267.404338 C856.530545,265.906997 857.710919,264.471968 858.968358,263.105918 L863.198906,258.509957 C866.500822,254.922837 871.153642,252.881813 876.029099,252.881813 L901.744446,252.881813 C904.062091,252.881813 905.940914,254.760636 905.940914,257.078281 C905.940914,259.856309 906.406148,262.614724 907.317314,265.239075 L909.341969,271.070518 C911.552137,277.436277 911.684265,284.339356 909.719314,290.785028 L909.341969,292.02284 C907.165751,299.161537 902.221758,305.131642 895.613775,308.600285 L882.821778,315.315021 C877.571253,318.071111 872.852863,321.739226 868.887108,326.147947 L857.075315,339.27909 C855.147401,341.422348 853.037743,343.39486 850.769921,345.174577 L814.875765,373.343208 C814.716077,373.468527 814.555626,373.592872 814.394423,373.716236 L771.800747,406.312087 C769.750851,407.880821 767.825512,409.605939 766.041998,411.471971 L745.283964,433.190413 C744.257697,434.264162 743.184094,435.291648 742.066349,436.269814 L706.632529,467.278819 C706.102021,467.743079 705.60988,468.249431 705.160906,468.792936 C700.556133,474.36724 701.342094,482.619013 706.916398,487.223786 L718.294798,496.623155 C718.622594,496.893938 718.953831,497.160529 719.288427,497.422863 L730.166464,505.95157 C736.893866,511.226055 742.156594,518.137296 745.451983,526.025169 L752.029794,541.769879 C754.580676,547.875693 755.89419,554.427123 755.89419,561.044371 L755.89419,606.526653 C755.89419,608.246204 756.487474,609.913096 757.573896,611.245964 C760.1803,614.443609 764.88541,614.922904 768.083054,612.3165 L784.589571,598.862019 C785.046695,598.489416 785.497191,598.108756 785.940847,597.720215 L812.877303,574.130122 C814.049281,573.103741 815.172649,572.023147 816.24373,570.891877 L831.644145,554.626044 C833.914851,552.227737 836.417596,550.060315 839.115707,548.155539 L879.541419,519.616332 C884.54158,516.086385 890.932467,515.171656 896.72207,517.157262 C902.493472,519.136626 908.869303,518.149328 913.771753,514.517118 L923.098732,507.606787 C926.060545,505.412388 929.255941,503.552246 932.62666,502.060276 L953.501396,492.820557 C956.022612,491.7046 958.447202,490.382014 960.750369,488.866326 L967.718027,484.280989 C974.520942,479.804068 982.486386,477.418225 990.630247,477.418225 L1022.33417,477.418225 C1030.59136,477.418225 1037.84017,482.911935 1040.07244,490.86166 L1042.18686,498.39164 C1043.23101,502.110139 1042.44618,506.103548 1040.07244,509.150328 C1037.59777,512.326673 1034.34525,514.810626 1030.62951,516.361913 L927.97304,559.220073 C923.115863,561.247901 918.609339,564.029952 914.619941,567.463456 L889.376311,589.189565 C888.128349,590.263632 886.828096,591.275399 885.480302,592.221169 L865.296092,606.384776 C864.338292,607.056881 863.40438,607.7624 862.49608,608.500029 L849.361416,619.16669 C846.834949,621.218434 844.114188,623.018595 841.237856,624.541553 L797.734182,647.57585 C792.434194,650.382085 787.682276,654.118901 783.70547,658.607758 L764.364929,680.438574 C759.146608,686.328803 751.118413,688.882924 743.455947,687.090638 C735.715481,685.280108 729.4485,679.619025 726.862943,672.101863 L696.108059,582.686132 C695.400962,580.63034 694.828696,578.530621 694.394904,576.400342 L687.56354,542.852626 C686.614677,538.192919 685.00593,533.6924 682.785914,529.487076 L664.474328,494.799872 C663.189795,492.366611 662.108307,489.831471 661.24088,487.220273 L579.527805,241.241064 C579.219702,240.313587 578.556841,239.545867 577.684201,239.105818 C575.861338,238.186597 573.638439,238.919144 572.719218,240.742007 L572.135309,241.899937 C570.95483,244.240888 569.421692,246.386574 567.589551,248.261899 C557.711056,258.373236 541.506095,258.561991 531.394758,248.683496 L531.152083,248.441258 C525.644664,242.823709 525.250703,234.026974 529.971039,222.051385 C530.682102,220.24712 531.497535,218.485752 532.413204,216.77621 L541.770539,199.317456 C545.155813,192.997893 549.860504,187.480221 555.565551,183.138634 C564.332007,176.469707 568.714538,171.107047 568.714538,167.052486 C568.714538,162.100384 574.801561,153.93099 586.972711,142.541206 C587.971605,141.606898 589.008415,140.713971 590.080525,139.864678 L627.808563,109.974395 C629.182235,108.886209 630.612167,107.870994 632.092439,106.932954 L788.004152,8.13258617 C795.527205,3.36527022 804.250188,0.834129235 813.156569,0.834129235 Z M1286.05633,163.214153 C1289.43565,163.214153 1292.80627,163.556745 1296.11648,164.236674 L1317.77249,168.684895 C1319.81007,169.103419 1321.2288,170.938445 1321.14221,172.996505 L1321.12851,173.203011 C1318.44981,202.208578 1315.59069,220.923452 1312.55112,229.347632 L1312.35686,229.87137 C1307.49424,242.615431 1306.0295,253.823602 1298.58393,263.735426 L1298.26887,264.147282 C1292.84136,271.12552 1273.61841,290.415329 1240.60003,322.016709 L1210.26826,351.680201 C1209.74173,352.195131 1209.20389,352.698365 1208.65512,353.189535 L1164.37095,392.826085 C1157.59961,398.886769 1157.02351,409.289176 1163.0842,416.060512 C1164.83673,418.018545 1167.03274,419.528361 1169.48846,420.463624 L1181.77804,425.144124 C1190.25897,428.37409 1199.45906,429.234944 1208.39197,427.634392 L1219.74293,425.600588 C1225.19827,424.623128 1230.77817,424.559469 1236.2544,425.412214 L1348.29724,442.859258 C1350.18981,443.153964 1352.06388,443.557175 1353.91018,444.066899 L1388.68127,453.666422 C1393.92302,459.348342 1398.37348,461.278773 1402.03264,459.457713 C1405.6918,457.636654 1411.99061,451.369633 1420.92906,440.65665 L1428.04036,442.098796 C1431.82033,442.865359 1435.10581,445.181484 1437.09799,448.484052 L1438.52831,450.855174 C1439.57988,452.598428 1439.6363,454.766479 1438.67683,456.562068 C1437.66955,458.447107 1437.26428,460.595602 1437.51562,462.718055 L1438.67683,472.523848 C1439.63913,480.65001 1436.33963,488.697441 1429.94972,493.809151 L1420.92906,501.025374 C1411.61523,518.828008 1397.65501,528.958574 1379.04838,531.417071 C1360.44175,533.875568 1341.24879,531.307029 1321.46949,523.711453 L1294.00887,514.708513 C1292.09695,514.081691 1290.14893,513.570846 1288.17545,513.178767 L1241.56065,503.917621 C1240.9203,503.790398 1240.27751,503.67573 1239.63266,503.573683 L1198.09401,497.000168 C1197.49744,496.905759 1196.90262,496.800548 1196.30986,496.684587 L1171.34094,491.79997 C1183.7839,506.834111 1188.8372,521.985674 1186.50087,537.25466 C1183.9744,553.766226 1179.94026,564.449486 1175.91826,574.540966 L1175.48745,575.62017 L1174.17949,578.89611 C1174.16247,578.938743 1174.14551,578.9814 1174.1286,579.02408 L1173.73834,580.009411 C1173.72125,580.052558 1173.70422,580.095728 1173.68725,580.138922 L1173.27384,581.191241 C1172.78164,582.450294 1172.29486,583.718133 1171.81645,585.004946 L1171.34094,586.298461 C1167.84093,595.932496 1162.47832,605.721529 1155.25308,615.665561 L1131.34877,578.655213 C1130.93366,578.012513 1130.53336,577.36037 1130.14818,576.699299 L1113.86865,548.759209 C1112.28162,546.035422 1110.95573,543.16765 1109.9087,540.194194 L1093.25848,492.909255 C1092.99812,492.169834 1092.72039,491.436638 1092.42555,490.710276 L1080.01663,460.140485 C1079.83188,459.685328 1079.65384,459.227474 1079.48257,458.767071 L1071.94884,438.514413 C1069.87397,432.936642 1068.81154,427.033251 1068.81154,421.082068 L1068.81154,418.066815 C1068.81154,413.278238 1068.12365,408.514493 1066.76893,403.921541 L1050.7511,349.615532 C1050.54666,348.92241 1050.35727,348.224937 1050.18307,347.523604 L1047.01902,334.785507 C1044.99073,326.619848 1039.75645,319.616552 1032.49946,315.358837 L1029.7864,313.767069 C1024.13234,310.449797 1017.69566,308.700966 1011.14031,308.700966 L1006.00852,308.700966 C1002.87289,308.700966 999.85404,309.890676 997.561463,312.029902 C995.268886,314.169128 992.25004,315.358837 989.114406,315.358837 L977.07777,315.358837 C970.266276,315.358837 963.911791,311.932014 960.169529,306.240624 C956.332071,300.404455 954.98179,293.27839 956.418163,286.44291 L960.591431,266.582972 C960.989273,264.689707 961.1898,262.760303 961.1898,260.82569 C961.1898,259.033696 962.174228,257.386567 963.752488,256.53784 L999.370911,237.383649 C1003.74203,235.033034 1008.62769,233.802684 1013.59076,233.802684 L1017.02687,233.802684 C1019.65503,233.802684 1022.16242,234.906247 1023.93762,236.844269 C1025.19656,238.218685 1027.33132,238.312296 1028.70573,237.053355 C1028.87122,236.901775 1029.02117,236.734066 1029.15336,236.552719 L1031.54686,233.269249 C1034.73863,228.890699 1038.65855,225.092736 1043.13577,222.040919 L1072.03514,202.342166 C1074.43834,200.704065 1077.27929,199.827915 1080.18768,199.827915 C1083.11229,199.827915 1085.98559,199.059647 1088.51992,197.600023 L1097.13156,192.640235 C1103.35276,189.057197 1110.27261,186.855905 1117.42053,186.186054 L1129.74584,185.031016 C1133.92768,184.639124 1138.04348,183.721869 1141.99599,182.300925 L1150.05692,179.40298 C1150.89775,179.100698 1151.74653,178.821009 1152.60235,178.564215 L1178.58343,170.768402 C1181.51916,169.887513 1184.52968,169.278434 1187.57695,168.948857 L1237.91965,163.504049 C1239.70527,163.310926 1241.5,163.214153 1243.29604,163.214153 L1286.05633,163.214153 Z M1240.23605,235.777192 C1202.04877,236.498134 1177.69668,239.202721 1167.1798,243.890953 L1164.3782,245.190899 C1152.21552,250.880734 1124.42228,264.247846 1080.99849,285.292234 L1087.65802,308.628104 C1101.32223,356.67772 1108.23287,382.175694 1108.38993,385.122025 L1108.39267,385.215657 C1108.39267,388.03179 1121.60289,379.849772 1148.02334,360.669601 L1241.17907,237.632701 C1241.56485,237.123179 1241.46453,236.397394 1240.95501,236.011617 C1240.78281,235.881239 1240.57829,235.802181 1240.36494,235.782101 L1240.23605,235.777192 Z M1486.11701,195.046092 L1498.70262,184.237655 C1504.64073,179.138042 1512.20915,176.334212 1520.03649,176.334212 C1527.43953,176.334212 1534.17498,180.614676 1537.31851,187.31715 L1553.78713,222.43066 C1554.64895,224.268182 1555.39809,226.156473 1556.03038,228.085051 L1565.6899,257.547733 C1566.13808,258.914723 1566.52705,260.30042 1566.85573,261.700953 L1596.06433,386.160954 C1596.57676,388.344415 1597.23551,390.490925 1598.03612,392.585941 L1623.43953,459.06027 C1625.1089,463.428596 1630.00342,465.616531 1634.37175,463.94716 C1635.02463,463.697656 1635.64412,463.368274 1636.21606,462.966532 C1640.20572,460.164135 1645.71177,461.126601 1648.51417,465.116261 C1648.86409,465.614427 1649.16154,466.147453 1649.40177,466.706828 L1651.76498,472.209485 C1656.05283,482.193627 1656.55563,493.398102 1653.1793,503.726175 L1648.22187,518.890743 C1646.16892,525.17065 1642.89171,530.981415 1638.57964,535.987207 L1626.06375,550.516658 C1621.55116,555.755232 1614.44114,557.953299 1607.75942,556.175452 L1603.09956,554.935573 C1599.40512,553.952571 1596.83384,550.607661 1596.83384,546.784683 C1596.83384,542.73715 1594.79948,538.960635 1591.41958,536.733808 L1587.80519,534.352497 C1581.92707,530.479735 1577.37434,524.90146 1574.75814,518.366463 L1555.45008,470.136877 C1555.20409,469.52242 1554.97032,468.903138 1554.74892,468.279399 L1526.72252,389.322636 C1525.87983,386.948587 1525.21777,384.514247 1524.74198,382.040411 L1508.57318,297.971197 C1508.12867,295.65995 1507.52152,293.382974 1506.75625,291.157254 L1485.93711,230.606014 C1484.6996,227.006774 1483.05517,223.560602 1481.03577,220.334457 L1477.54744,214.761558 C1475.11187,210.870544 1475.60356,205.826988 1478.74479,202.479652 L1482.23265,198.762941 C1483.45984,197.455228 1484.7565,196.214485 1486.11701,195.046092 Z M1908.34335,139.443027 C1922.64016,124.861543 1922.64016,115.041512 1908.34335,109.982935 C1897.37383,106.101639 1888.59647,106.609118 1882.01129,111.505371 L1882.01332,111.508108 C1876.36659,115.706377 1869.89733,118.665537 1863.02851,120.192108 L1862.55111,120.298971 C1853.41576,122.328723 1845.18414,127.264164 1839.08972,134.365743 L1791.54772,189.764455 C1787.92714,193.983365 1785.93669,199.359131 1785.93669,204.918609 C1785.93669,210.414028 1783.65461,215.662672 1779.63564,219.410669 L1766.73786,231.438829 C1763.79944,234.179121 1762.13094,238.016588 1762.13094,242.034482 C1762.13094,246.190631 1761.28582,250.303379 1759.64695,254.12276 L1754.13151,266.97645 C1753.96492,267.364681 1753.80326,267.755006 1753.64657,268.147334 L1746.68792,285.570265 C1744.33184,291.469374 1743.12142,297.763405 1743.12142,304.115617 L1743.12142,355.523343 C1743.12176,363.64312 1745.09959,371.640653 1748.88396,378.82462 C1761.26365,402.322264 1770.32014,416.843712 1776.05354,422.388917 C1785.93669,431.947657 1820.33224,478.003408 1848.47815,486.58119 C1876.62406,495.158973 1885.20917,504.534064 1921.25859,504.534064 C1943.54745,504.534064 1969.59957,492.055094 1999.41494,467.097154 L1999.41666,467.099211 C2003.96231,463.294161 2007.79509,458.711079 2010.736,453.564006 L2039.63935,402.976904 C2040.86818,400.826113 2042.25515,398.769614 2043.78879,396.824394 L2063.40188,371.947771 C2065.6237,369.129681 2067.53568,366.080584 2069.10477,362.853184 L2074.91291,350.906597 C2077.39169,345.808088 2076.58862,339.722342 2072.87215,335.441345 L2066.7443,328.382689 C2049.90486,324.512609 2041.48515,324.512609 2041.48515,328.382689 C2041.48515,331.965301 2031.48674,343.464896 2011.48993,362.881474 L2011.49269,362.884314 C2008.23822,366.044455 2004.56884,368.74701 2000.58555,370.917589 L1971.19301,386.937111 C1968.13919,388.601068 1965.2673,390.579094 1962.62398,392.839066 L1937.36631,414.433751 C1928.80138,419.677337 1919.12706,421.290425 1908.34335,419.273016 C1892.16778,416.246901 1876.14272,415.085715 1858.44643,402.262786 C1840.75014,389.439857 1826.98391,379.273105 1816.05275,360.886552 C1805.12159,342.5 1788.90734,314.077998 1794.25324,294.5 C1799.59914,274.922002 1811.04638,240.660189 1821.99112,227.097327 C1832.93586,213.534465 1866.68002,188.529048 1880.37496,182.43163 C1894.06989,176.334212 1911.50983,173.060907 1913.83731,164.080124 C1916.16478,155.099342 1908.34335,150.410946 1908.34335,143.87602 C1908.34335,139.519402 1908.34335,138.041738 1908.34335,139.443027 L1908.34335,139.443027 Z M4.84915391,428.369119 L3.30113252,425.146202 C-0.0878183339,418.090547 -0.837259821,410.054333 1.188605,402.493702 C3.10465199,395.342918 8.98252749,389.944832 16.2702265,388.643141 L54.4496645,381.823723 C56.4476288,381.466857 58.4654683,381.231972 60.4919827,381.120374 L92.2328269,379.372435 C93.1483895,379.322015 94.0651659,379.296792 94.9821158,379.296792 L212.83427,379.296792 C216.256451,379.296792 219.66959,378.945454 223.020008,378.248306 L291.475181,364.004284 C306.656919,360.845296 322.033929,368.458298 328.726102,382.446836 L332.466289,390.264887 C337.391949,400.560912 338.291683,412.32614 334.988903,423.251428 L331.783735,433.853824 C330.569708,437.869709 327.534392,441.0788 323.59224,442.51429 C319.449024,444.022994 315.073701,444.794817 310.664344,444.794817 L300.725748,444.794817 C299.546697,444.794817 298.368015,444.836522 297.191912,444.919853 L208.438141,451.208404 C206.067612,451.376366 203.688124,451.375109 201.317774,451.204643 L112.946028,444.849311 C112.440893,444.812984 111.935235,444.784333 111.429229,444.763369 L58.4838134,442.569833 C57.7942725,442.541265 57.104214,442.526977 56.4140815,442.526977 L27.3557325,442.526977 C17.7555922,442.526977 9.00566189,437.022796 4.84915391,428.369119 Z" fill="#000000"></path>
    </g>
</svg>