<svg id="visual" viewBox="0 0 960 540" width="960" height="540" xmlns="http://www.w3.org/2000/svg" xmlns:xlink="http://www.w3.org/1999/xlink" version="1.1"><path d="M959 540L954.2 510C949.3 480 939.7 420 923.7 360C907.7 300 885.3 240 879 180C872.7 120 882.3 60 887.2 30L892 0L960 0L960 30C960 60 960 120 960 180C960 240 960 300 960 360C960 420 960 480 960 510L960 540Z" fill="#261665"></path><path d="M921 540L914.5 510C908 480 895 420 869.3 360C843.7 300 805.3 240 807 180C808.7 120 850.3 60 871.2 30L892 0L893 0L888.2 30C883.3 60 873.7 120 880 180C886.3 240 908.7 300 924.7 360C940.7 420 950.3 480 955.2 510L960 540Z" fill="#160e3d"></path><path d="M748 540L706.3 510C664.7 480 581.3 420 501.3 360C421.3 300 344.7 240 344.7 180C344.7 120 421.3 60 459.7 30L498 0L893 0L872.2 30C851.3 60 809.7 120 808 180C806.3 240 844.7 300 870.3 360C896 420 909 480 915.5 510L922 540Z" fill="#110325"></path><path d="M671 540L629.3 510C587.7 480 504.3 420 430.7 360C357 300 293 240 288.3 180C283.7 120 338.3 60 365.7 30L393 0L499 0L460.7 30C422.3 60 345.7 120 345.7 180C345.7 240 422.3 300 502.3 360C582.3 420 665.7 480 707.3 510L749 540Z" fill="#0f021f"></path><path d="M642 540L586 510C530 480 418 420 341.2 360C264.3 300 222.7 240 233.8 180C245 120 309 60 341 30L373 0L394 0L366.7 30C339.3 60 284.7 120 289.3 180C294 240 358 300 431.7 360C505.3 420 588.7 480 630.3 510L672 540Z" fill="#0f021e"></path><path d="M191 540L207 510C223 480 255 420 250.2 360C245.3 300 203.7 240 178 180C152.3 120 142.7 60 137.8 30L133 0L374 0L342 30C310 60 246 120 234.8 180C223.7 240 265.3 300 342.2 360C419 420 531 480 587 510L643 540Z" fill="#0f021f"></path><path d="M133 540L136.3 510C139.7 480 146.3 420 141.7 360C137 300 121 240 111.3 180C101.7 120 98.3 60 96.7 30L95 0L134 0L138.8 30C143.7 60 153.3 120 179 180C204.7 240 246.3 300 251.2 360C256 420 224 480 208 510L192 540Z" fill="#110325"></path><path d="M37 540L45 510C53 480 69 420 73.8 360C78.7 300 72.3 240 74 180C75.7 120 85.3 60 90.2 30L95 0L96 0L97.7 30C99.3 60 102.7 120 112.3 180C122 240 138 300 142.7 360C147.3 420 140.7 480 137.3 510L134 540Z" fill="#160e3d"></path><path d="M0 540L0 510C0 480 0 420 0 360C0 300 0 240 0 180C0 120 0 60 0 30L0 0L96 0L91.2 30C86.3 60 76.7 120 75 180C73.3 240 79.7 300 74.8 360C70 420 54 480 46 510L38 540Z" fill="#261665"></path></svg>