<svg id="visual" viewBox="0 0 960 540" width="960" height="540" xmlns="http://www.w3.org/2000/svg" xmlns:xlink="http://www.w3.org/1999/xlink" version="1.1"><path d="M882 540L882 510C882 480 882 420 886.8 360C891.7 300 901.3 240 904.5 180C907.7 120 904.3 60 902.7 30L901 0L960 0L960 30C960 60 960 120 960 180C960 240 960 300 960 360C960 420 960 480 960 510L960 540Z" fill="#e2e2f2"></path><path d="M815 540L816.7 510C818.3 480 821.7 420 824.8 360C828 300 831 240 834.2 180C837.3 120 840.7 60 842.3 30L844 0L902 0L903.7 30C905.3 60 908.7 120 905.5 180C902.3 240 892.7 300 887.8 360C883 420 883 480 883 510L883 540Z" fill="#d9daee"></path><path d="M786 540L782.8 510C779.7 480 773.3 420 776.5 360C779.7 300 792.3 240 798.7 180C805 120 805 60 805 30L805 0L845 0L843.3 30C841.7 60 838.3 120 835.2 180C832 240 829 300 825.8 360C822.7 420 819.3 480 817.7 510L816 540Z" fill="#ced0e9"></path><path d="M633 540L642.5 510C652 480 671 420 679 360C687 300 684 240 687.2 180C690.3 120 699.7 60 704.3 30L709 0L806 0L806 30C806 60 806 120 799.7 180C793.3 240 780.7 300 777.5 360C774.3 420 780.7 480 783.8 510L787 540Z" fill="#c1c3e3"></path><path d="M412 540L426.3 510C440.7 480 469.3 420 485.3 360C501.3 300 504.7 240 509.5 180C514.3 120 520.7 60 523.8 30L527 0L710 0L705.3 30C700.7 60 691.3 120 688.2 180C685 240 688 300 680 360C672 420 653 480 643.5 510L634 540Z" fill="#bec1e2"></path><path d="M249 540L257 510C265 480 281 420 292.2 360C303.3 300 309.7 240 335.2 180C360.7 120 405.3 60 427.7 30L450 0L528 0L524.8 30C521.7 60 515.3 120 510.5 180C505.7 240 502.3 300 486.3 360C470.3 420 441.7 480 427.3 510L413 540Z" fill="#c1c3e3"></path><path d="M153 540L165.7 510C178.3 480 203.7 420 221.2 360C238.7 300 248.3 240 269.2 180C290 120 322 60 338 30L354 0L451 0L428.7 30C406.3 60 361.7 120 336.2 180C310.7 240 304.3 300 293.2 360C282 420 266 480 258 510L250 540Z" fill="#ced0e9"></path><path d="M37 540L38.7 510C40.3 480 43.7 420 47 360C50.3 300 53.7 240 52 180C50.3 120 43.7 60 40.3 30L37 0L355 0L339 30C323 60 291 120 270.2 180C249.3 240 239.7 300 222.2 360C204.7 420 179.3 480 166.7 510L154 540Z" fill="#d9daee"></path><path d="M0 540L0 510C0 480 0 420 0 360C0 300 0 240 0 180C0 120 0 60 0 30L0 0L38 0L41.3 30C44.7 60 51.3 120 53 180C54.7 240 51.3 300 48 360C44.7 420 41.3 480 39.7 510L38 540Z" fill="#e2e2f2"></path></svg>